<svg version="1.1" xmlns="http://www.w3.org/2000/svg">

<symbol id="twitter-icon" viewBox="0 0 50 41"><path d="M0 36.3C0.8 36.4 1.6 36.5 2.5 36.5 7.3 36.5 11.7 34.8 15.2 32.1 10.7 32 6.9 29 5.6 24.9 6.2 25 6.9 25 7.5 25 8.5 25 9.4 24.9 10.3 24.7 5.6 23.7 2 19.5 2 14.5 2 14.5 2 14.4 2 14.4 3.4 15.2 5 15.6 6.7 15.7 3.9 13.8 2.1 10.7 2.1 7.1 2.1 5.2 2.6 3.4 3.5 1.9 8.6 8.1 16.1 12.3 24.7 12.7 24.5 11.9 24.4 11.1 24.4 10.3 24.4 4.6 29 0 34.7 0 37.6 0 40.3 1.2 42.2 3.2 44.5 2.8 46.7 1.9 48.7 0.7 47.9 3.1 46.3 5.2 44.2 6.5 46.2 6.2 48.2 5.6 50.1 4.8 48.7 6.9 47 8.7 44.9 10.2 45 10.6 45 11.1 45 11.5 45 25.2 34.6 41 15.7 41 9.9 41 4.5 39.3 0 36.3L0 36.3Z" id="bird"/></symbol>

<symbol id="facebook-icon" viewBox="0 0 96 96"><path d="M72.1 0L59.6 0C45.6 0 36.6 9.3 36.6 23.7v10.9H24c-1.1 0-2 0.9-2 2v15.8c0 1.1 0.9 2 2 2h12.5v39.9c0 1.1 0.9 2 2 2h16.4c1.1 0 2-0.9 2-2V54.3h14.7c1.1 0 2-0.9 2-2l0-15.8c0-0.5-0.2-1-0.6-1.4 -0.4-0.4-0.9-0.6-1.4-0.6H56.8v-9.2c0-4.4 1.1-6.7 6.8-6.7l8.4 0c1.1 0 2-0.9 2-2V2C74 0.9 73.2 0 72.1 0z"/></symbol>

<symbol id="youtube-icon" viewBox="0 0 90 90"><path d="M70.9 65.8H66l0-2.9c0-1.3 1-2.3 2.3-2.3h0.3c1.3 0 2.3 1 2.3 2.3L70.9 65.8zM52.4 59.7c-1.3 0-2.3 0.8-2.3 1.9V75.5c0 1 1 1.9 2.3 1.9 1.3 0 2.3-0.8 2.3-1.9V61.6C54.7 60.5 53.7 59.7 52.4 59.7zM82.5 51.9v26.5C82.5 84.8 77 90 70.2 90H19.8C13 90 7.5 84.8 7.5 78.4V51.9c0-6.4 5.5-11.6 12.3-11.6H70.2C77 40.3 82.5 45.5 82.5 51.9zM23.1 81.3l0-28 6.3 0v-4.1l-16.7 0v4.1l5.2 0v28H23.1zM41.9 57.5h-5.2v14.9c0 2.2 0.1 3.2 0 3.6 -0.4 1.2-2.3 2.4-3.1 0.1 -0.1-0.4 0-1.6 0-3.6l0-15h-5.2l0 14.8c0 2.3-0.1 4 0 4.7 0.1 1.4 0.1 2.9 1.3 3.8 2.3 1.7 6.8-0.3 8-2.7l0 3.1 4.2 0L41.9 57.5 41.9 57.5zM58.6 74.6L58.6 62.2c0-4.7-3.5-7.6-8.4-3.7l0-9.2 -5.2 0 0 31.9 4.3-0.1 0.4-2C55.1 84.1 58.6 80.6 58.6 74.6zM74.9 73l-3.9 0c0 0.2 0 0.3 0 0.5v2.2c0 1.2-1 2.1-2.1 2.1h-0.8c-1.2 0-2.1-1-2.1-2.1V75.5v-2.4 -3.1h9v-3.4c0-2.5-0.1-4.9-0.3-6.3 -0.6-4.5-6.9-5.2-10.1-2.9 -1 0.7-1.7 1.7-2.2 2.9 -0.4 1.3-0.7 3-0.7 5.3v7.4C61.7 85.3 76.7 83.6 74.9 73zM54.8 32.7c0.3 0.7 0.7 1.2 1.3 1.6 0.6 0.4 1.3 0.6 2.1 0.6 0.8 0 1.4-0.2 2-0.6 0.6-0.4 1.1-1 1.5-1.9l-0.1 2h5.8V9.7H62.8v19.2c0 1-0.9 1.9-1.9 1.9 -1 0-1.9-0.9-1.9-1.9V9.7h-4.8v16.7c0 2.1 0 3.5 0.1 4.3C54.4 31.4 54.6 32.1 54.8 32.7zM37.2 18.8c0-2.4 0.2-4.2 0.6-5.6 0.4-1.3 1.1-2.4 2.1-3.2 1-0.8 2.3-1.2 3.9-1.2 1.3 0 2.5 0.3 3.5 0.8 1 0.5 1.7 1.2 2.2 2 0.5 0.8 0.9 1.7 1.1 2.6 0.2 0.9 0.3 2.2 0.3 4v6.3c0 2.3-0.1 4-0.3 5.1 -0.2 1.1-0.6 2.1-1.1 3 -0.6 0.9-1.3 1.6-2.2 2.1 -0.9 0.4-2 0.7-3.2 0.7 -1.3 0-2.4-0.2-3.4-0.6 -0.9-0.4-1.6-1-2.1-1.7 -0.5-0.8-0.9-1.7-1.1-2.8 -0.2-1.1-0.3-2.7-0.3-4.9L37.2 18.8 37.2 18.8zM41.8 28.6c0 1.4 1 2.5 2.3 2.5 1.3 0 2.3-1.1 2.3-2.5V15.4c0-1.4-1-2.5-2.3-2.5 -1.3 0-2.3 1.1-2.3 2.5V28.6zM25.7 35.2h5.5l0-19 6.5-16.2h-6l-3.4 12.1L24.7 0h-5.9l6.9 16.3L25.7 35.2z"/></symbol>

<symbol id="soundcloud-icon" viewBox="0 0 478 478"><path d="M0 287.1c0 16 7.3 30.4 18.9 40.3v-80.8C7.3 256.4 0 270.9 0 287.1M39 236.1v102c4.7 1.3 9.8 2 14.9 2h5.2V234.2c-1.7-0.1-3.5-0.2-5.3-0.2C48.6 234 43.7 234.7 39 236.1M83.3 242.7c-1.4-0.8-2.8-1.7-4.2-2.4v99.7h20.1V206.6C91.1 216.9 85.5 229.3 83.3 242.7M119.1 187.8v152.2h20V177.9C132.1 180.3 125.4 183.7 119.1 187.8M159.3 173.7v166.3h20.1V174.4c-4.2-0.7-8.3-0.9-12.6-0.9C164.2 173.5 161.7 173.5 159.3 173.7M210.4 185.6c-6.6-3.9-13.6-7-21-9.1v163.5h30.1V173.4C216.2 177.3 213.1 181.3 210.4 185.6M229.5 163.4v176.6h190.4v-0.1c40.1-2.7 58.3-27.5 58.3-57.9 0-32.1-24.3-58.1-56.9-58.1 -8.4 0-15.1 1.8-22.5 4.9 -5.2-50.9-48.5-90.6-101.7-90.6C271.2 138.2 247.5 147.6 229.5 163.4"/></symbol>

<symbol id="rssfeed-icon" viewBox="0 0 98 98"><path d="M12.6 72.4C5.7 72.4 0 78.1 0 85s5.7 12.6 12.6 12.6c7 0 12.6-5.7 12.6-12.6S19.6 72.4 12.6 72.4zM2.1 36.4c-0.5 0-1.1 0.2-1.5 0.6 -0.4 0.4-0.6 0.9-0.6 1.4v16.2c0 1.1 0.8 1.9 1.9 2 21.3 1 38.2 17.8 39.1 39.1 0 1.1 0.9 1.9 2 1.9H59.3c0.5 0 1.1-0.2 1.4-0.6s0.6-0.9 0.6-1.5c-0.5-15.5-6.9-30.2-17.9-41.2C32.3 43.3 17.7 36.9 2.1 36.4zM69.1 28.6C51.1 10.7 27.3 0.5 2.1 0c-0.5 0-1.1 0.2-1.4 0.6C0.3 1 0 1.5 0 2v16.2c0 1.1 0.9 2 2 2 40.6 1 74.5 34.9 75.5 75.5 0 1.1 0.9 1.9 2 1.9h16.2c0.5 0 1.1-0.2 1.4-0.6 0.4-0.4 0.6-0.9 0.6-1.4C97.1 70.3 87 46.5 69.1 28.6z"/></symbol>

<symbol id="reload-icon" viewBox="0 0 29 29"><path d="M14.133,28.265c-7.061,0-12.805-5.75-12.805-12.809c0-7.06,5.744-12.807,12.805-12.807c0.469,0,0.943,0.027,1.414,0.08 v-2.07c0-0.266,0.164-0.508,0.406-0.611c0.252-0.098,0.531-0.043,0.723,0.148l4.537,4.547c0.258,0.258,0.258,0.67,0,0.932 l-4.535,4.557c-0.193,0.188-0.473,0.246-0.725,0.143c-0.242-0.104-0.406-0.344-0.406-0.609V7.47 c-0.469-0.086-0.941-0.125-1.414-0.125c-4.473,0-8.113,3.639-8.113,8.111c0,4.471,3.641,8.113,8.113,8.113s8.111-3.643,8.111-8.113 c0-0.363,0.295-0.66,0.662-0.66h3.369c0.365,0,0.662,0.297,0.662,0.66C26.937,22.515,21.189,28.265,14.133,28.265z"/></symbol>

<symbol id="downarrow-icon" viewBox="0 0 452 452"><path d="M225.923,354.706c-8.098,0-16.195-3.092-22.369-9.263L9.27,151.157c-12.359-12.359-12.359-32.397,0-44.751 c12.354-12.354,32.388-12.354,44.748,0l171.905,171.915l171.906-171.909c12.359-12.354,32.391-12.354,44.744,0 c12.365,12.354,12.365,32.392,0,44.751L248.292,345.449C242.115,351.621,234.018,354.706,225.923,354.706z"/></symbol>

<symbol id="close-icon" viewBox="0 0 349 349"><path d="M336.559,68.611L231.016,174.165l105.543,105.549c15.699,15.705,15.699,41.145,0,56.85 c-7.844,7.844-18.128,11.769-28.407,11.769c-10.296,0-20.581-3.919-28.419-11.769L174.167,231.003L68.609,336.563 c-7.843,7.844-18.128,11.769-28.416,11.769c-10.285,0-20.563-3.919-28.413-11.769c-15.699-15.698-15.699-41.139,0-56.85 l105.54-105.549L11.774,68.611c-15.699-15.699-15.699-41.145,0-56.844c15.696-15.687,41.127-15.687,56.829,0l105.563,105.554 L279.721,11.767c15.705-15.687,41.139-15.687,56.832,0C352.258,27.466,352.258,52.912,336.559,68.611z"/></symbol>

<symbol id="leftarrow-icon" viewBox="0 0 22 22"><path d="M10.544,11.031l6.742-6.742c0.81-0.809,0.81-2.135,0-2.944l-0.737-0.737 c-0.81-0.811-2.135-0.811-2.945,0L4.769,9.443c-0.435,0.434-0.628,1.017-0.597,1.589c-0.031,0.571,0.162,1.154,0.597,1.588 l8.835,8.834c0.81,0.811,2.135,0.811,2.945,0l0.737-0.737c0.81-0.808,0.81-2.134,0-2.943L10.544,11.031z"/></symbol>

<symbol id="email-icon" viewBox="0 0 21 21"><path d="M20.966,4.305c0-0.467-0.38-0.847-0.848-0.847H0.848C0.381,3.458,0,3.838,0,4.305v1.052 c0,0.042,0.004,0.081,0.009,0.115C0.004,5.505,0,5.538,0,5.572v11.09c0,0.467,0.38,0.846,0.848,0.846h19.271 c0.468,0,0.848-0.379,0.848-0.846V5.572c0-0.044-0.005-0.084-0.011-0.121c0.007-0.045,0.011-0.091,0.011-0.136L20.966,4.305 L20.966,4.305z M2.013,5.152h16.888l-8.419,6.1L2.013,5.152z M19.272,7.217v8.598H1.694V7.217l8.297,5.914 c0.289,0.207,0.697,0.205,0.984,0.002L19.272,7.217z"/></symbol>

<symbol id="rightarrow-icon" viewBox="0 0 46 46"><path d="M14.757,46.02c-1.412,0-2.825-0.521-3.929-1.569c-2.282-2.17-2.373-5.78-0.204-8.063l12.758-13.418L10.637,9.645 C8.46,7.37,8.54,3.76,10.816,1.582c2.277-2.178,5.886-2.097,8.063,0.179l16.505,17.253c2.104,2.2,2.108,5.665,0.013,7.872 L18.893,44.247C17.77,45.424,16.267,46.02,14.757,46.02z"/></symbol>

<symbol id="uparrow-icon" viewBox="0 0 316 316"><path d="M308,206.5l-133-133c-5-5-11-7-17-7c-7,0-12,2-17,7L8,206.5c-5,5-8,11-8,17s3,13,8,18 c10,10,24,10,34,0l116-116l116,116c10,10,24,10,34,0S318,216.5,308,206.5z"/></symbol>

<symbol id="search-icon" viewBox="0 0 363 363"><path d="M352.464,302.966l-90.374-90.373c-6.689-6.69-15.414-10.097-24.182-10.238c33.904-50.513,28.561-119.733-16.045-164.339 c-50.688-50.687-133.161-50.687-183.848,0c-50.688,50.687-50.688,133.161,0,183.848c44.606,44.606,113.826,49.95,164.339,16.045 c0.142,8.767,3.548,17.492,10.238,24.182l90.373,90.374c13.669,13.668,35.829,13.668,49.498,0 C366.132,338.795,366.132,316.634,352.464,302.966z M193.579,193.579c-35.091,35.091-92.188,35.091-127.279,0 c-35.091-35.091-35.091-92.188,0-127.279c35.091-35.091,92.188-35.091,127.279,0C228.67,101.39,228.67,158.488,193.579,193.579z"/></symbol>

<symbol id="totop-icon" viewBox="0 0 485 485"><path d="M451.655,414.239H33.048C14.798,414.239,0,428.659,0,446.911c0,18.25,14.798,32.67,33.048,32.67h418.607 c18.249,0,33.047-14.421,33.047-32.67C484.702,428.659,469.904,414.239,451.655,414.239z"/><path d="M267.352,19.192c-13.861-19.657-37.979-17.842-50.001,0C186.867,64.434,91.051,197.139,91.051,197.139 c-7.234,10.19-6.902,23.929,0.811,33.762c7.716,9.834,20.984,13.42,32.602,8.819l73.499-29.111l-9.704,143.854 c-0.53,7.826,2.224,15.52,7.6,21.237c5.376,5.712,12.887,8.936,20.73,8.89h51.525c7.844,0.046,15.354-3.177,20.729-8.89 c5.376-5.718,8.131-13.412,7.601-21.237l-9.704-143.854l73.499,29.111c11.617,4.602,24.886,1.015,32.602-8.819 c7.713-9.833,8.045-23.571,0.812-33.762C393.651,197.139,298.792,63.774,267.352,19.192z"/></symbol>

<symbol id="menu-icon" viewBox="0 0 124 124"><path d="M112,6H12C5.4,6,0,11.4,0,18s5.4,12,12,12h100c6.6,0,12-5.4,12-12S118.6,6,112,6z"/><path d="M112,50H12C5.4,50,0,55.4,0,62c0,6.6,5.4,12,12,12h100c6.6,0,12-5.4,12-12C124,55.4,118.6,50,112,50z"/><path d="M112,94H12c-6.6,0-12,5.4-12,12s5.4,12,12,12h100c6.6,0,12-5.4,12-12S118.6,94,112,94z"/></symbol>

<symbol id="github-icon" viewBox="0 0 90 90"><path d="M65.709,10.5c1.17,2.657,1.928,7.07,0.797,10.301c4.625,3.949,6.215,13.549,3.982,21.394 C77.08,42.698,84.932,41.953,90,43.976c-4.738-0.609-11.209-1.804-17.32-1.388c-1.158,0.079-2.873-0.044-2.789,1.585 c7.074,0.555,14.104,1.16,19.912,2.973c-5.761-0.941-12.754-2.375-19.912-2.574c-2.957,5.835-8.908,8.703-17.123,9.307 c0.883,1.922,2.574,2.653,2.987,5.744c0.616,4.618-0.964,11.381,0.595,14.459c0.748,1.475,1.967,1.514,2.789,2.775 c-2.012,2.381-7-0.268-7.568-2.775c-0.973-4.295,1.482-10.953-1.192-13.865c0.188,4.685-1.108,11.264,0.199,15.449 c0.515,1.646,2.002,2.281,1.593,3.766c-9.352,0.949-5.443-12.104-6.972-19.81c-1.411,0.101-0.791,2.113-0.796,2.972 c-0.04,7.524,1.54,17.844-6.57,16.838c-0.237-1.582,1.088-2.119,1.593-3.563c1.479-4.233-0.277-10.542,0.401-15.651 c-3.095,2.334,0.325,10.48-1.593,14.657c-1.105,2.404-4.666,3.45-7.367,2.377c0.352-1.79,2.2-1.501,2.984-3.169 c1.096-2.324,0.008-5.674,0.399-9.111c-5.729,1.144-10.173-0.166-12.348-3.764c-0.973-1.615-1.214-3.52-2.39-4.951 c-1.17-1.432-3.04-1.625-3.582-3.563c7.095-1.708,7.367,7.302,13.739,7.524c1.954,0.071,2.97-0.563,4.778-0.988 c0.506-2.272,1.589-3.967,3.186-5.153c-7.929-1.085-14.477-3.554-17.522-9.504c-7.208,0.354-13.804,1.317-19.913,2.771 c5.545-2.014,12.384-2.736,19.715-2.973c-0.432-2.596-4.219-1.882-6.57-1.782C8.973,42.781,3.473,43.324,0,43.976 c5.034-1.795,12.098-1.571,18.918-1.585c-2.086-6.54-1.363-16.929,3.186-20.798C20.815,18.344,21.215,13.03,22.9,10.5 c5.079,0.228,8.159,2.443,11.35,4.557c3.957-1.125,8.118-1.685,13.54-1.387c2.28,0.126,4.651,1.151,6.369,0.989 c1.685-0.158,3.542-2.049,5.178-2.771C61.468,10.947,63.271,10.588,65.709,10.5z"/></symbol>

<symbol id="new-icon"  viewBox="0 0 23.429 23.429">
<polygon points="16.946,0.643 5.019,0.643 0,5.132 0,22.726 11.935,22.726 11.935,21.146 1.777,21.146 1.777,6.852 6.926,6.852 6.926,2.221 15.169,2.221 15.169,7.111 16.946,7.111"/>
<polygon points="14.438,14.372 14.438,9.495 18.224,9.495 18.224,14.372 23.429,14.372 23.429,17.909 18.224,17.909 18.224,22.786 14.438,22.786 14.438,17.909 9.242,17.909 9.242,14.372"/>
</symbol>

<symbol id="config-icon" viewBox="0 0 268.8 268.8"><path d="M267.9 119.5c-0.4-3.8-4.8-6.6-8.6-6.6 -12.3 0-23.2-7.2-27.8-18.4 -4.7-11.5-1.7-24.8 7.5-33.2 2.9-2.6 3.2-7.1 0.8-10.1 -6.3-8-13.5-15.2-21.3-21.5 -3.1-2.5-7.6-2.1-10.2 0.8 -8 8.9-22.4 12.2-33.5 7.5 -11.6-4.9-18.9-16.6-18.2-29.2 0.2-4-2.7-7.4-6.6-7.8 -10-1.2-20.2-1.2-30.2-0.1 -3.9 0.4-6.8 3.8-6.7 7.7 0.4 12.5-6.9 24-18.4 28.7 -11 4.5-25.3 1.2-33.3-7.6 -2.6-2.9-7.1-3.3-10.1-0.9 -8.1 6.3-15.4 13.6-21.7 21.5 -2.5 3.1-2.1 7.6 0.8 10.2 9.4 8.5 12.4 21.9 7.5 33.5 -4.6 11-16.1 18.2-29.2 18.2 -4.3-0.1-7.3 2.7-7.8 6.6 -1.2 10.1-1.2 20.4-0.1 30.6 0.4 3.8 5 6.6 8.8 6.6 11.7-0.3 22.9 6.9 27.7 18.4 4.7 11.5 1.7 24.8-7.5 33.2 -2.9 2.6-3.2 7.1-0.8 10.1 6.2 8 13.4 15.2 21.3 21.5 3.1 2.5 7.6 2.1 10.2-0.8 8-8.9 22.4-12.2 33.5-7.5 11.6 4.9 18.9 16.6 18.2 29.2 -0.2 4 2.7 7.4 6.6 7.9 5.1 0.6 10.3 0.9 15.5 0.9 4.9 0 9.8-0.3 14.8-0.8 3.9-0.4 6.8-3.8 6.7-7.7 -0.5-12.5 6.9-24 18.4-28.7 11.1-4.5 25.3-1.2 33.3 7.6 2.7 2.9 7 3.2 10.1 0.8 8-6.3 15.3-13.5 21.7-21.5 2.5-3.1 2.1-7.6-0.8-10.2 -9.4-8.5-12.4-21.9-7.5-33.5 4.6-10.9 15.6-18.2 27.5-18.2l1.7 0c3.9 0.3 7.4-2.7 7.9-6.6C269 139.9 269.1 129.6 267.9 119.5zM134.6 179.5c-24.7 0-44.8-20.1-44.8-44.8 0-24.7 20.1-44.8 44.8-44.8 24.7 0 44.8 20.1 44.8 44.8C179.4 159.4 159.3 179.5 134.6 179.5z"/></symbol>

<symbol id="delete-icon" viewBox="0 0 774.3 774.3"><path d="M640.4 91.2H537V24C537 10.5 526.1 0 512.5 0c-1.3 0-2.2 0.4-2.6 0.9C509.5 0.4 508.6 0 508.2 0H265.2h-1.7 -1.7c-13.5 0-24 10.5-24 24v67.2H133.9c-29.7 0-52.8 23.1-52.8 52.8v38.4 48h45.8v491.6c0 29.7 22.7 52.3 52.3 52.3h415.7c29.7 0 52.8-22.7 52.8-52.3v-491.6h45.4v-48 -38.4C693.1 114.3 670 91.2 640.4 91.2zM285.7 48h202.8v43.2h-202.8V48zM599.3 721.9c0 3.1-1.3 4.4-4.4 4.4H179.3c-3.1 0-4.4-1.3-4.4-4.4V230.3h424.4V721.9zM644.7 182.3H129.6v-38.4c0-3.1 1.3-4.8 4.4-4.8H640.4c3.1 0 4.4 1.7 4.4 4.8V182.3z"/><rect x="475" y="286.6" width="48.4" height="396.9"/><rect x="363.4" y="286.6" width="48.4" height="396.9"/><rect x="251.7" y="286.6" width="48.4" height="396.9"/></symbol>

<symbol id="home-icon" viewBox="0 0 547.596 547.596"><path d="M540.76,254.788L294.506,38.216c-11.475-10.098-30.064-10.098-41.386,0L6.943,254.788 c-11.475,10.098-8.415,18.284,6.885,18.284h75.964v221.773c0,12.087,9.945,22.108,22.108,22.108h92.947V371.067 c0-12.087,9.945-22.108,22.109-22.108h93.865c12.239,0,22.108,9.792,22.108,22.108v145.886h92.947 c12.24,0,22.108-9.945,22.108-22.108v-221.85h75.965C549.021,272.995,552.081,264.886,540.76,254.788z"/></symbol>

<symbol id="inv-icon" viewBox="0 0 100 100"><path d="M62.162,0c6.696,0,10.043,4.567,10.043,9.789c0,6.522-5.814,12.555-13.391,12.555 c-6.344,0-10.045-3.752-9.869-9.947C48.945,7.176,53.35,0,62.162,0z M41.543,100c-5.287,0-9.164-3.262-5.463-17.615l6.07-25.457 c1.057-4.077,1.23-5.707,0-5.707c-1.588,0-8.451,2.816-12.51,5.59L27,52.406C39.863,41.48,54.662,35.072,61.004,35.072 c5.285,0,6.168,6.361,3.525,16.148L57.58,77.98c-1.234,4.729-0.703,6.359,0.527,6.359c1.586,0,6.787-1.963,11.896-6.041L73,82.377 C60.488,95.1,46.83,100,41.543,100z"/></symbol>

<symbol id="map-icon" viewBox="0 0 885.1 885.1"><path d="M35.5,248.4v531.401c0,12.898,8.2,24.299,20.4,28.398l228.3,76.9V290.4L75,220C55.6,213.4,35.5,227.9,35.5,248.4z"/><path d="M632.4,492.699c-8.601,9.102-19.601,15.5-31.5,18.5V801.4l209.1,70.4c19.4,6.5,39.6-7.9,39.6-28.4V312 c0-12.9-8.199-24.3-20.399-28.4L786,269c-9.5,26.5-24.8,56.1-45.8,88.6C712.5,400.5,675.2,447.301,632.4,492.699z"/><path d="M537.6,492.6C496,448.199,459.2,401.9,431,358.7c-21.8-33.5-37.6-63.7-47.2-90.4l-65.6,22.1v594.7l248.7-83.799V510.6 C555.8,507.301,545.6,501.199,537.6,492.6z"/><path d="M585.5,0c-0.2,0-0.4,0-0.5,0C484.7,0,401.9,80.4,399.1,180.7c-0.5,17.4,1.4,34.3,5.4,50.4c1.6,8.6,4.2,17.8,7.8,27.6 c17.2,47.3,44.5,90.3,75.2,130c19.9,25.8,61,94.4,97.5,94.4c38.8,0,83.3-76.299,103.5-103.6c27.3-36.899,53.5-76.7,69.1-120.1 c3.601-10,6.301-19.5,7.9-28.3c3.6-14.4,5.5-29.5,5.5-45.1C771,83.5,688,0.3,585.5,0z M600.9,278.7c-5.2,0.8-10.5,1.3-15.9,1.3
c-6.2,0-12.2-0.6-18.1-1.7c-29.101-5.4-53.7-23.8-67.601-48.9c-7.8-14.1-12.2-30.2-12.2-47.4c0-54.1,43.9-98,98-98 c54.101,0,98,43.9,98,98c0,17.5-4.6,33.9-12.6,48.1C656.1,255.4,630.7,273.8,600.9,278.7z"/></symbol>

<symbol id="tasks-icon" viewBox="0 0 482.14 482.14"><path d="M302.614,0H108.968C80.676,0,57.652,23.026,57.652,51.315v379.509c0,28.289,23.024,51.316,51.316,51.316h264.221 c28.274,0,51.3-23.026,51.3-51.316V121.449L302.614,0z M373.188,450.698H108.968c-10.955,0-19.875-8.905-19.875-19.874V51.315 c0-10.953,8.92-19.858,19.875-19.858l181.89-0.188v67.217c0,19.653,15.934,35.604,35.585,35.604l65.863-0.188l0.741,296.924 C393.047,441.793,384.141,450.698,373.188,450.698z"/><path d="M128.02,160.148h79.449c6.682,0,12.104-5.421,12.104-12.104V68.589c0-6.684-5.422-12.104-12.104-12.104H128.02 c-6.681,0-12.104,5.421-12.104,12.104v79.455C115.917,154.727,121.339,160.148,128.02,160.148z M140.124,80.692h55.241v55.247 h-55.241V80.692z"/><path d="M128.02,292.913h79.449c6.682,0,12.104-5.421,12.104-12.103v-79.455c0-6.684-5.422-12.105-12.104-12.105H128.02 c-6.681,0-12.104,5.421-12.104,12.105v79.455C115.917,287.492,121.339,292.913,128.02,292.913z M140.124,213.458h55.241v55.247 h-55.241V213.458z"/><path d="M166.554,401.447h-26.43v-55.248h55.241v15.595l7.337,7.337l16.871-16.873v-18.162c0-6.683-5.422-12.104-12.104-12.104 H128.02c-6.681,0-12.104,5.421-12.104,12.104v79.455c0,6.683,5.422,12.103,12.104,12.103h65.358 c-2.821-1.181-5.492-2.876-7.793-5.177L166.554,401.447z"/><path d="M249.62,339.328l-46.918,46.918l-18.598-18.597c-4.729-4.729-12.388-4.729-17.116,0c-4.728,4.727-4.728,12.387,0,17.115 l27.155,27.154c2.364,2.364,5.461,3.548,8.559,3.548c3.097,0,6.192-1.184,8.557-3.548l55.476-55.477 c4.729-4.727,4.729-12.388,0-17.114C262.008,334.6,254.348,334.6,249.62,339.328z"/></symbol>


<symbol id="nav-icon" viewBox="0 0 440.479 440.479"><path d="M195.88,295.984h48.726c28.427,0,51.531-23.12,51.531-51.525v-48.751c0-28.409-23.115-51.516-51.531-51.516H195.88 c-28.424,0-51.539,23.115-51.539,51.516v48.751C144.341,272.864,167.457,295.984,195.88,295.984z M157.43,195.7 c0-21.188,17.255-38.436,38.451-38.436h48.726c21.206,0,38.45,17.255,38.45,38.436v48.748c0,21.206-17.255,38.445-38.45,38.445 H195.88c-21.206,0-38.451-17.244-38.451-38.445V195.7z"/><path d="M233.018,7.662c-2.996-4.778-7.657-7.51-12.773-7.51c-5.129,0-9.78,2.739-12.792,7.521l-60.451,96.197 c-3.225,5.104-3.705,10.506-1.328,14.805c2.364,4.291,7.19,6.746,13.226,6.746h122.679c6.053,0,10.877-2.466,13.243-6.746 c2.377-4.307,1.895-9.702-1.33-14.805L233.018,7.662z M158.892,112.348c-0.284,0-0.546-0.018-0.759-0.033 c-0.419-0.038-0.64-0.442-0.45-0.82c0.102-0.198,0.221-0.419,0.378-0.665l60.466-96.189c0.262-0.419,0.516-0.744,0.736-0.988 c0.457-0.505,1.501-0.505,1.96,0c0.221,0.244,0.472,0.561,0.734,0.98l60.469,96.215c0.157,0.244,0.279,0.465,0.386,0.663 c0.188,0.37-0.036,0.767-0.457,0.805c-0.224,0.025-0.482,0.033-0.777,0.033H158.892z"/><path d="M281.569,314.737H158.892c-6.035,0-10.861,2.463-13.226,6.754c-2.376,4.291-1.896,9.694,1.328,14.798l60.451,96.207 c3.128,4.977,7.79,7.83,12.789,7.83c5.004,0,9.661-2.854,12.789-7.841l60.453-96.187c3.225-5.113,3.707-10.517,1.326-14.808 C292.451,317.195,287.622,314.737,281.569,314.737z M221.951,425.519c-1.478,2.356-1.96,2.342-3.423,0.016l-60.466-96.197 c-0.15-0.244-0.277-0.467-0.378-0.665c-0.19-0.381,0.031-0.782,0.45-0.823c0.221-0.015,0.475-0.03,0.759-0.03h122.677 c0.294,0,0.554,0.011,0.776,0.03c0.427,0.041,0.641,0.442,0.452,0.823c-0.106,0.198-0.224,0.421-0.381,0.665L221.951,425.519z"/><path d="M432.643,207.298l-96.207-60.483c-2.976-1.849-5.956-2.796-8.871-2.796c-6.108,0-12.68,4.604-12.68,14.734v122.664 c0,10.126,6.571,14.731,12.68,14.731c2.915,0,5.911-0.939,8.887-2.803l96.177-60.469c5.002-3.128,7.851-7.779,7.851-12.792 C440.479,215.077,437.63,210.416,432.643,207.298z M329.515,282.254c-0.254,0.147-0.473,0.274-0.671,0.376 c-0.386,0.198-0.792-0.03-0.827-0.457c-0.025-0.229-0.036-0.482-0.036-0.767V158.752c0-0.285,0.011-0.546,0.036-0.774
c0.035-0.429,0.446-0.64,0.827-0.452c0.198,0.104,0.417,0.221,0.665,0.381l96.183,60.466c0.416,0.262,0.741,0.513,0.985,0.736 c0.508,0.446,0.508,1.493-0.006,1.95c-0.248,0.218-0.568,0.472-0.995,0.736L329.515,282.254z"/><path d="M112.914,144.009c-2.915,0-5.908,0.949-8.886,2.813L7.835,207.288C2.851,210.416,0,215.07,0,220.079 c0,5.007,2.851,9.669,7.835,12.781l96.207,60.484c2.963,1.854,5.957,2.798,8.871,2.798c6.091,0,12.665-4.606,12.665-14.736 V158.752C125.578,148.617,119.005,144.009,112.914,144.009z M112.464,282.188c-0.033,0.426-0.437,0.649-0.815,0.456 c-0.198-0.102-0.419-0.218-0.67-0.375l-96.185-60.484c-0.419-0.259-0.741-0.513-0.987-0.736c-0.498-0.446-0.505-1.482,0-1.95 c0.246-0.223,0.568-0.475,0.987-0.733l96.177-60.458c0.251-0.16,0.473-0.285,0.678-0.389c0.388-0.19,0.79,0.041,0.823,0.467 c0.015,0.229,0.03,0.482,0.03,0.767v122.664C112.495,281.7,112.487,281.96,112.464,282.188z"/></symbol>

<symbol id="award-icon" viewBox="0 0 23.382 23.382"><path d="M14.58,15.181c0.438-0.732,1.082-1.107,1.936-1.117c0.854-0.01,1.285-0.445,1.299-1.301
c0.012-0.852,0.383-1.496,1.115-1.932c0.734-0.438,0.893-1.027,0.475-1.773c-0.416-0.744-0.416-1.488,0-2.234 c0.418-0.744,0.26-1.332-0.475-1.77c-0.732-0.439-1.104-1.082-1.115-1.938c-0.014-0.852-0.445-1.287-1.299-1.297 c-0.854-0.012-1.498-0.385-1.936-1.117c-0.438-0.734-1.027-0.893-1.771-0.475c-0.744,0.416-1.49,0.416-2.234,0 C9.83-0.19,9.241-0.032,8.803,0.702C8.366,1.435,7.721,1.808,6.868,1.819c-0.852,0.01-1.285,0.445-1.297,1.297 C5.557,3.972,5.186,4.614,4.454,5.054C3.72,5.492,3.559,6.079,3.979,6.824c0.418,0.746,0.418,1.49,0,2.234 c-0.42,0.746-0.26,1.336,0.475,1.773c0.732,0.436,1.104,1.08,1.117,1.932c0.012,0.855,0.445,1.291,1.297,1.301 c0.854,0.01,1.498,0.385,1.936,1.117c0.438,0.734,1.027,0.893,1.771,0.473c0.744-0.412,1.49-0.412,2.234,0 C13.553,16.073,14.143,15.915,14.58,15.181z M11.694,12.614c-2.582,0-4.674-2.092-4.674-4.674c0-2.58,2.092-4.672,4.674-4.672 c2.58,0,4.672,2.092,4.672,4.672C16.366,10.522,14.274,12.614,11.694,12.614z"/><path d="M6.793,14.749c-0.898,0-1.018-0.418-1.018-0.418l-3.507,6.893l2.812-0.316l1.555,2.34c0,0,3.24-6.76,3.24-6.715 C8.196,16.491,8.864,14.794,6.793,14.749z"/><path d="M17.563,14.601c-2.562,0.268-2.041,0.904-2.627,1.398c-0.674,0.719-1.516,0.578-1.516,0.578l3.955,6.805l0.973-2.52 l2.766,0.361L17.563,14.601z"/><polygon points="12.67,6.909 11.692,4.929 10.713,6.909 8.524,7.229 10.106,8.772 9.733,10.954 11.692,9.925 13.651,10.954 13.278,8.772 14.86,7.229"/></symbol>

</svg>
